<svg xmlns="http://www.w3.org/2000/svg" viewBox="0 0 800 726.9"><path d="M759.8 399.8c-157.8 47.5-530.1-19.2-564.7-84.7-30.7-58 23.9-132.6 83.1-134.1 2.2 9.1 9.1 20.9 14.4 26.3.7.9 1.9 1.1 2.8.5.6-.4.9-1.2.8-1.9-.7-7.7-.6-15.3.3-23 0 0 13.8-162.3 193.8-163 102.1-.4 150.2 76 168 114l.1.1c-17 5.3-27.7 16.7-34.6 26.1-1.4 1.7-1.1 4.3.6 5.7 1.2 1 2.9 1.2 4.3.5 16.7-7.6 37.7-10.3 38.7-10.4v.1c145 11.5 159.1 195 92.4 243.8z" fill="#00acdc"/><path d="M627.2 373c-6.8-1.6-13.3-4.6-18.9-8.8-5.6-4.2-10.4-9.4-14.2-15.4-3.8-5.9-6.7-12.4-8.5-19.2-3.5-13.7-3-28 1.3-41.4 2.2-6.7 5.4-12.9 9.5-18.6 4.1-5.7 9.1-10.6 14.9-14.6 5.7-3.9 12.2-6.7 19-8.1.9-.2 1.8.4 2 1.3.2.8-.3 1.7-1.1 2-12 4.3-22.3 12.5-29.1 23.3-6.8 10.6-10.5 22.9-10.7 35.6-.5 12.6 2.6 25 9 35.9 6.3 10.8 16.1 19.6 28.1 24 1.1.5 1.5 1.8 1 2.8-.5.9-1.4 1.3-2.3 1.2z" fill="#10294c"/><circle cx="261" cy="263.7" r="18.5" fill="#10294c"/><circle cx="687.2" cy="322.3" r="18.5" fill="#10294c"/><circle cx="269.6" cy="65.2" r="19.9" fill="#00acdc"/><circle cx="321.5" cy="11.9" r="11.9" fill="#00acdc"/><circle cx="728.4" cy="134" r="11.9" fill="#00acdc"/><path d="M261.6 250.2l-.6-.3c-.2-.1-.4-.1-.6-.2-.4-.1-.9-.1-1.3 0-.2 0-.4.1-.6.2l-.6.3c-.2.1-.4.3-.5.4-.6.6-1 1.5-1 2.4 0 .2 0 .4.1.7 0 .2.1.4.2.6l.3.6c.1.2.3.4.4.5.1.2.3.3.5.4l.6.3c.2.1.4.1.6.2.4.1.9.1 1.3 0 .2 0 .4-.1.6-.2l.6-.3c.2-.1.4-.3.5-.4.6-.6 1-1.5 1-2.4 0-.9-.4-1.8-1-2.4-.2-.1-.3-.3-.5-.4zM253.6 258.6c-1.7-.9-3.7-.2-4.6 1.5-.4.8-.7 1.7-.9 2.6-.3 1.4-.3 2.8-.1 4.2.3 1.6 1.7 2.9 3.4 2.9h.6c1.9-.3 3.1-2.1 2.8-3.9-.1-.5-.1-1.1.1-1.6.1-.3.2-.7.4-1 .7-1.7 0-3.8-1.7-4.7.1.1 0 0 0 0zM687.7 308.7l-.6-.3c-.2-.1-.4-.1-.6-.2-.4-.1-.9-.1-1.3 0-.2 0-.4.1-.6.2l-.6.3c-.2.1-.4.3-.5.4-.6.6-1 1.5-1 2.4 0 .2 0 .4.1.7 0 .2.1.4.2.6l.3.6c.1.2.3.4.4.5.1.2.3.3.5.4l.6.3c.2.1.4.1.6.2.4.1.9.1 1.3 0 .2 0 .4-.1.6-.2l.6-.3c.2-.1.4-.3.5-.4.6-.6 1-1.5 1-2.4 0-.9-.4-1.8-1-2.4-.1-.1-.3-.3-.5-.4zM679.8 317.2c-1.7-.9-3.7-.2-4.6 1.5-.4.8-.7 1.7-.9 2.6-.3 1.4-.3 2.8-.1 4.2.3 1.6 1.7 2.8 3.3 2.9h.6c1.9-.3 3.1-2.1 2.8-3.9-.1-.5-.1-1.1 0-1.6.1-.3.2-.7.4-1 .8-1.8.2-3.8-1.5-4.7z" fill="#f8f9f8"/><path d="M364.3 338.2c47.6-36.1 10.7-96.9 10.7-96.9 244.4-52.7 237.4 203.8-10.8 96.9h.1z" fill="#10294c"/><path d="M454.5 234.7l-20.6 8.8c-7.1 3-12 9.7-12.8 17.4l-1.4 13.6c-.4 8.2 2.1 10.6 8.7 14.9.9.6 1.7 1.3 2.4 2.1 3.7 4.6 1.7 10.7 6.8 12.9l.6.2 9.2 3.3-.8 8.2-.4 4.3c-.6 6.3 3.1 12.2 9.1 14.3l60.9 21.7 10.9-4.6c52.8-31.3 29.1-109.4-72.6-117.1z" fill="#fdb813"/><path d="M531.7 262.8c-12.2 0-21.7 3.9-22.1 9.3-.4 6 10.7 11.7 24.8 12.6 4.7.4 9.4.1 14-.8-4.1-8-9.8-15.2-16.7-21.1z" fill="#f04e23"/><path d="M540.3 271.5c-1.8-.5-3.6-.9-5.5-1-5.3-.4-9.7.8-9.8 2.6s4.1 3.6 9.4 3.9c4.1.3 7.6-.4 9.1-1.5-1.1-1.3-2.1-2.7-3.2-4z" fill="#fdb813"/><ellipse transform="rotate(-85.996 491.537 282.325) scale(1.00004)" cx="491.5" cy="282.3" rx="2.8" ry="6.5" fill="#f04e23"/><path fill="#10294c" d="M463.4 249.2l-16.1-5.6-5.7 2.4 16.1 5.6zM472.1 252.3l-5.7 2.4 26.9 9.5 5.7-2.4zM484.3 247l-24.5-8.6-5.7 2.3 24.6 8.7zM493 250.1l-5.7 2.3 18.6 6.6 5.6-2.4z"/><path d="M465.6 267.1c-3.2-.5-6.4-1.2-9.5-2.1-3.1-.9-6.2-1.9-9.2-3-3-1.1-6-2.3-9-3.7-3-1.3-5.9-2.8-8.7-4.5-.6-.4-.8-1.2-.4-1.8.3-.4.8-.7 1.3-.6 3.2.5 6.4 1.1 9.6 2 3.1.8 6.2 1.8 9.3 2.8 3.1 1 6 2.2 9.1 3.5 3 1.3 5.9 2.7 8.7 4.4.8.4 1.1 1.4.7 2.2-.4.6-1.1.9-1.9.8zM477.8 330.7c-1.7 0-3.4-.2-5.1-.6-1.6-.4-3.2-.8-4.8-1.4-1.6-.6-3.1-1.3-4.6-2.1-1.5-.8-3-1.8-4.3-2.9-.6-.5-.6-1.4-.1-1.9.3-.3.6-.5 1-.5 1.7-.1 3.5.1 5.1.4 1.6.3 3.3.7 4.8 1.3 1.6.5 3.1 1.2 4.6 1.9 1.5.8 3 1.7 4.3 2.8.7.6.9 1.6.3 2.4-.2.4-.7.6-1.2.6zM441.9 272.7c-1.5.1-3 0-4.5-.3-1.4-.3-2.8-.7-4.1-1.2-1.4-.5-2.7-1.1-3.9-1.8-1.3-.7-2.5-1.6-3.6-2.7-.6-.5-.6-1.4 0-2 .2-.2.5-.4.9-.4 1.5-.1 3-.1 4.5.2 1.4.2 2.8.6 4.2 1 1.4.4 2.7 1 4 1.7 1.3.7 2.6 1.5 3.7 2.6.7.7.8 1.8.1 2.5-.4.2-.8.4-1.3.4zM551.3 292.7c-2.6.9-5.1 1.7-7.7 2.7l-8.1 3c-2.7 1-5.4 2.1-8.1 3.1-2.3.9-4.6 1.8-6.9 2.8-3.2-1.2-6.4-2.3-9.6-3.5-3.6-1.2-7.1-2.5-10.7-3.6-1.8-.6-3.6-1.1-5.4-1.7s-3.6-1.1-5.4-1.6c-3.6-1-7.3-2-11-2.9-.7-.2-1.4.3-1.5 1-.1.6.1 1.2.7 1.4 3.4 1.7 6.8 3.2 10.3 4.7 1.7.8 3.5 1.5 5.2 2.2 1.7.7 3.5 1.4 5.2 2.1 3.5 1.4 7 2.7 10.6 4 3.1 1.1 6.2 2.2 9.4 3.3-.6 2.5-1 4.9-1.4 7.4-.3 1.8-.5 3.6-.7 5.4-3.4-1.8-6.9-3.4-10.4-4.8-3.7-1.5-7.5-3-11.3-4.3s-7.6-2.5-11.5-3.6c-3.9-1.1-7.8-2.1-11.8-2.8-.7-.1-1.4.3-1.5 1-.1.6.2 1.1.7 1.4 3.5 1.9 7.2 3.7 10.9 5.3 3.7 1.6 7.4 3.1 11.2 4.5 3.8 1.4 7.6 2.6 11.4 3.8 3.9 1.2 7.8 2.2 11.8 3h.2c0 .4-.1.9-.1 1.3-.3 3.4-.4 6.7-.4 10.1-.1 3.4.1 6.8.4 10.2.1.5.4 1 .9 1.1.7.2 1.4-.2 1.6-.9.9-3.3 1.7-6.6 2.2-9.9.6-3.3 1-6.7 1.3-10 .3-3.3.6-6.7.6-10.1.1-2.6.1-5.1-.1-7.7 2.4-1.1 4.9-2.1 7.3-3.2 2.6-1.2 5.3-2.3 7.9-3.6s5.2-2.4 7.8-3.7c2.2-1 4.3-2.1 6.4-3.2.1-1.4-.1-2.6-.4-3.7z" fill="#f04e23"/><path d="M515.9 251.6c-6.3 1.9-12.6 4.1-18.6 6.6-3.7 1.5-7.3 3.2-10.8 5.1-3.6 1.9-7 4.1-10.3 6.6-3.4 2.5-6.4 5.6-8.8 9.2-1.3 1.9-2.2 4.1-2.7 6.3-.5 2.3-.5 4.7 0 7 .1.5.2 1.1.4 1.6.1.3.2.7.2 1 .1.4 0 .8-.1 1.2-.2.6-1.5 1.6-3 2.3-3 1.5-7.4 2.2-11 5.1-.6.5-.8 1.4-.5 2.1.4.9 1.4 1.3 2.3.9h.1c1.6-.7 3.3-1.2 5-1.5 2-.4 4-.8 5.9-1.5 1.1-.4 2.2-.8 3.2-1.5 1.2-.7 2.3-1.8 3-3 .7-1.4 1.1-2.9.9-4.5-.1-.6-.2-1.3-.3-1.9-.1-.5-.2-.9-.3-1.3-.3-1.5-.3-3.1.1-4.6.4-1.6 1-3.1 1.9-4.4.9-1.5 2-2.8 3.3-4.1.6-.6 1.3-1.3 2-1.9l2.1-1.8c3-2.3 6.1-4.4 9.4-6.3 3.3-1.9 6.7-3.7 10.2-5.3 6.6-3.1 13.5-5.9 20.4-8.6-1.3-1.1-2.6-2-4-2.8z" fill="#f04e23"/><ellipse transform="scale(.99996) rotate(-86.06 515.76 282.99)" cx="515.7" cy="283" rx="5.8" ry="13.5" fill="#10294c"/><path d="M384.3 292.4c-5.6-2.6-3.1-13.7 4.8-13.2s10 20.1-4.8 13.2zM360.5 305.4c-5.2-5.4 2.8-12.1 6.6-6.4 3.7 5.7-1.3 11.8-6.6 6.4zM403.9 338.1c-5.6-6.6-1.6-15 9.4-14.2 11 .7 3.2 29.2-9.4 14.2z" fill="#fdb813"/><path d="M326.7 252.8c5-1.7 10.1-3.5 15.1-5.1l7.6-2.3 3.8-1.2c1.3-.4 2.6-.7 3.8-1.1 5.1-1.4 10.3-2.8 15.5-4l7.8-1.8 7.8-1.6c1.3-.3 2.6-.5 3.9-.7l4-.6c2.6-.4 5.3-.9 7.9-1.2 5.3-.6 10.6-1.4 16-1.7 5.3-.5 10.7-.6 16.1-.8h10.1l2 .1 4 .2c10.8.5 21.5 2 32 4.4 10.6 2.4 20.9 6.1 30.7 11 4.9 2.5 9.6 5.4 14 8.6l3.3 2.5c.5.4 1.1.8 1.6 1.3l1.5 1.4c1 .9 2.1 1.8 3.1 2.8l2.9 3c1 1 1.8 2.1 2.7 3.2.9 1.1 1.8 2.1 2.6 3.3l2.4 3.4 2.2 3.6c2.8 4.9 4.9 10.2 6.3 15.7 1.3 5.6 1.7 11.4 1.2 17.1-.5 5.7-2 11.3-4.4 16.5-2.4 5.2-5.6 9.9-9.5 14.1-1.9 2.1-3.9 4-6.1 5.9-2.2 1.7-4.5 3.4-6.8 4.9-2.3 1.5-4.8 2.9-7.3 4.1-1.2.6-2.5 1.1-3.8 1.7s-2.5 1.1-3.8 1.6l-3.9 1.4c-1.3.5-2.6.8-3.9 1.2-1.3.4-2.6.8-4 1.1l-4 .9c-10.7 2.1-21.5 2.9-32.4 2.5-21.6-.8-42.7-5.3-63-11.6-5-1.7-10.1-3.3-15.1-5.2-2.5-.9-5-1.8-7.5-2.8l-7.4-3-3.7-1.5-3.6-1.6-7.3-3.2c-4.8-2.2-9.6-4.6-14.4-6.9-.9-.4-1.2-1.4-.8-2.3.4-.9 1.4-1.2 2.3-.8h.1c4.8 2.1 9.6 4.2 14.5 6.3l7.3 3 3.7 1.5 3.7 1.4 7.4 2.8c2.5.9 5 1.7 7.5 2.5 5 1.7 10 3.2 15 4.7 2.5.8 5 1.4 7.6 2 2.5.7 5 1.4 7.6 1.9l7.7 1.7 7.7 1.4c10.3 1.8 20.6 2.8 31 3 10.3.2 20.6-.7 30.7-2.8l3.7-.8c1.2-.3 2.4-.7 3.7-1 1.2-.3 2.5-.7 3.6-1.1l3.6-1.3c1.2-.4 2.4-.9 3.5-1.5 1.1-.5 2.3-1 3.4-1.6 2.2-1.1 4.4-2.4 6.5-3.8 2.1-1.3 4.1-2.8 6-4.4 1.9-1.6 3.6-3.3 5.3-5.1 3.3-3.6 6-7.7 8.1-12.1 4-9 4.8-19 2.5-28.5-1.2-4.8-3-9.4-5.4-13.6l-1.9-3.2-2.1-3c-.7-1-1.5-2-2.3-2.9-.8-1-1.6-1.9-2.4-2.8l-2.6-2.7c-.9-.9-1.9-1.7-2.8-2.5l-1.4-1.3-1.5-1.2-3-2.3c-1-.7-2.1-1.4-3.1-2.2-1-.7-2.1-1.5-3.2-2.1-2.2-1.3-4.3-2.6-6.6-3.7-9.1-4.7-18.8-8.2-28.8-10.6-10.1-2.4-20.3-3.9-30.7-4.6l-3.9-.2-1.9-.1h-2l-7.8-.1c-5.2.1-10.4.2-15.6.6-5.2.2-10.4.9-15.6 1.4-2.6.3-5.2.7-7.8 1l-3.9.5-3.9.6-7.7 1.3c-2.6.5-5.1 1-7.7 1.6-5.2 1-10.3 2.3-15.4 3.5-1.3.3-2.6.6-3.8.9l-3.8 1-7.6 2.1c-5 1.4-10.1 3-15.1 4.5h-.3c-1.1.3-2.3-.4-2.6-1.5-.3-1.7.2-2.8 1.3-3.1z" fill="#10294c"/><g><path d="M416 469.1c95.1 7.9 169.7 43.4 166.7 79.3s-82.4 58.7-177.5 50.8c-95-7.9-169.7-43.4-166.7-79.3S321 461.2 416 469.1zm146.2 79c.8-10.4-17.6-23.9-36.2-32.8-29-13.8-68.6-23.3-111.6-26.9-11.7-1-23.5-1.5-34.9-1.5-75.8 0-119.5 21.3-120.7 36.1-.9 10.4 17.6 23.9 36.2 32.8 29 13.8 68.6 23.3 111.6 26.9 11.7 1 23.4 1.5 34.8 1.5 76 0 119.6-21.3 120.8-36.1z" fill="#fff"/><path d="M582.6 549.5c0-.4.1-.8.1-1.2 0 .2 0 .4-.1.6.9-18.4-16-36.9-47.8-52-31.2-14.8-73.3-25.1-118.7-28.8-96.5-8-174.5 15.4-177.6 53.3 0 .3 0 .5-.1.8 0-.8 0-1.5.1-2.3-3 35.9-10.5 189.6 156.7 206.4 169.7 11.4 184.1-137.1 187.3-176.1v-.3c.1-.1.1-.3.1-.4zm-336-27.4c2.3-27.9 60.5-47.4 133.7-47.4 11.4 0 23.2.5 35.2 1.5 44.4 3.7 85.6 13.6 115.9 28.1 28.7 13.6 44.5 30.1 43.2 45-1.2 15-19.5 28.6-50 37.3-32.2 9.2-74.5 12.3-118.9 8.6s-85.6-13.6-115.9-28.1c-28.7-13.7-44.5-30-43.2-45z" fill="#f04e23"/><path d="M526 515.4c18.6 8.9 37 22.4 36.2 32.8-1.2 14.7-44.9 36.1-120.7 36.1-11.4 0-23.2-.5-34.8-1.5-43-3.6-82.6-13.1-111.6-26.9-18.6-8.9-37-22.4-36.2-32.8 1.2-14.7 44.9-36.1 120.7-36.1 11.4 0 23.2.5 34.9 1.5 42.9 3.5 82.5 13.1 111.5 26.9zM493.9 675.8z" fill="#10294c"/><path d="M289.8 567.1c30.3 14.4 71.5 24.4 115.9 28.1s86.6.6 118.9-8.6c30.6-8.7 48.8-22.3 50-37.3 1.2-15-14.5-31.4-43.2-45-30.3-14.4-71.5-24.4-115.9-28.1-12-1-23.8-1.5-35.2-1.5-73.2 0-131.4 19.5-133.7 47.4-1.3 15 14.5 31.3 43.2 45z" fill="none"/><path d="M403.4 491.1l.6.2-2 26.7-52.5-18.7-73.5 30.9.6.2-1.4 13.9c6.3 4.4 12.9 8.3 19.9 11.6 29 13.8 68.6 23.3 111.6 26.9 11.7 1 23.4 1.5 34.8 1.5 46.5 0 80.8-8.1 100.8-17.6l5.3-80.8.3-.1-71-25.3-73.5 30.6z" fill="#fdb813"/><path d="M509.7 531.1c-1.8 1.4-3.7 2.6-5.8 3.7-2 1.1-4 2-6.1 2.8-2.1.8-4.2 1.6-6.4 2.2-2.2.7-4.4 1.1-6.7 1.4-.7.1-1.4-.4-1.5-1.2-.1-.5.1-.9.5-1.2 1.8-1.4 3.7-2.7 5.7-3.8 2-1.1 4-2.1 6-3 2.1-.9 4.2-1.7 6.3-2.4 2.2-.7 4.4-1.2 6.7-1.5.9-.1 1.7.6 1.8 1.5.2.6 0 1.1-.5 1.5zM428.7 520c3.1 1.4 6.2 2.6 9.4 3.8 3.2 1.2 6.4 2.2 9.6 3.2 3.3 1 6.6 1.8 9.9 2.3.9.1 1.7-.4 1.9-1.3.1-.7-.2-1.4-.9-1.7-3-1.7-6-3.2-9.2-4.5-3.1-1.3-6.3-2.5-9.5-3.6s-6.4-2.1-9.7-3c-3.3-.9-6.6-1.7-10-2.2-.5-.1-1 .2-1.3.6-.4.6-.2 1.4.5 1.8 3.1 1.7 6.2 3.3 9.3 4.6z" fill="#f04e23"/><path d="M516.7 548.2c-2.7 1.1-5.4 2.2-8.2 3.2h.5c2.8.2 5.5.5 8.3.7 2.8.3 5.5.6 8.3 1 1.8.3 3.5.5 5.3.8.1-.5.1-1.1.2-1.6.2-1.6.5-3.2.7-4.7.2-1.6.5-3.1.9-4.7.2-.8.3-1.5.5-2.3-1.5.8-3 1.5-4.6 2.3-4 2-7.9 3.7-11.9 5.3z" fill="none"/><path d="M540.7 535.2c-.2-.9-1.1-1.4-1.9-1.2-4.2 1.1-8.3 2.4-12.4 3.9-4 1.5-8.1 3-12 4.8-4 1.7-7.9 3.5-11.7 5.4-3.9 1.9-7.7 3.9-11.4 6.2-.6.4-.8 1.2-.4 1.8.3.5.9.7 1.4.6 2.8-.7 5.5-1.5 8.1-2.4 2.6.8 5.3 1.4 8 2 2.7.6 5.5 1.1 8.2 1.6 2.7.5 5.5.9 8.2 1.3s5.5.8 8.3 1.1h.4c1.6.1 2.9-1.1 3-2.7.1-1.6.1-3.2.2-4.8.1-1.6.1-3.2.1-4.8s0-3.2-.1-4.8c0-1.4-.1-2.8-.3-4.3 1.2-.7 2.5-1.4 3.7-2.1.5-.2.7-.9.6-1.6zm-8.1 7.8c-.3 1.6-.6 3.1-.9 4.7-.3 1.6-.5 3.1-.7 4.7-.1.5-.1 1-.2 1.6-1.8-.3-3.5-.5-5.3-.8-2.7-.4-5.5-.7-8.3-1-2.8-.3-5.5-.6-8.3-.7h-.5c2.7-1 5.5-2 8.2-3.2 4-1.6 7.9-3.4 11.8-5.2 1.5-.7 3.1-1.5 4.6-2.3-.1.7-.2 1.4-.4 2.2z" fill="#f04e23"/><path fill="#fff" d="M484.1 502.3l-49.5-17.7-8.4 3.6 49.4 17.6zM355.7 542.7L306.2 525l-8.4 3.6 49.4 17.6zM454.5 476.2l-8.5 3.5 29.2 10.5 8.5-3.6zM504.4 494l-12.3-4.4-8.4 3.5 12.3 4.4zM486.8 472.5l-8.4 3.6 36.9 13.2 8.5-3.6z"/><path d="M357.4 511.8c-11.4-.6-21.3 1.1-26.5 4.1l25.9 6-17.3 7.5c5.5 1.5 11.1 2.4 16.7 2.7 16.3.8 29.8-3 30.1-8.7.4-5.6-12.6-10.8-28.9-11.6z" fill="#00acdc"/><path d="M356.9 522l-25.9-6c-2.2 1.3-3.5 2.8-3.6 4.6-.2 3.5 4.7 6.8 12.3 9.1l17.2-7.7z" fill="#10294c"/><path fill="#f04e23" d="M442.1 566l-17.4-6.2-5.6 2.4 17.3 6.1zM450.8 569l-5.7 2.4 25.7 9 5.7-2.3zM425.5 579.6l-26-9.2-5.7 2.4 26.1 9.1zM453.8 579.7l-41.6-14.6-5.6 2.3 41.6 14.6zM443.6 561.1l39.5 14.1 5.7-2.4-39.6-14z"/><path d="M540.7 488.8c-.3-.8-1.2-1.3-2-1-5.5 1.9-11.1 4-16.5 6L514 497l-8.2 3.2c-5.4 2.2-10.9 4.4-16.3 6.6-5 2.1-10.1 4.2-15.2 6.3l-14.7-5.1c-5.3-1.8-10.6-3.6-15.9-5.3-5.3-1.7-10.6-3.5-15.9-5.1s-10.7-3.3-16-4.9c-.7-.2-1.4.2-1.6.9-.2.6.1 1.3.7 1.5 5.1 2.2 10.3 4.3 15.5 6.4 5.2 2.1 10.4 4.1 15.6 6 5.2 1.9 10.4 4 15.6 5.9 4.8 1.8 9.7 3.5 14.5 5.3-.5 2.6-.9 5.1-1.3 7.7-.5 3.5-.8 6.9-1 10.4-.2 3.5-.3 6.9-.3 10.4 0 2.3.1 4.7.3 7-4.8-1.8-9.6-3.6-14.4-5.3-5.9-2.1-11.8-4.3-17.7-6.4-.7-.2-1.5-.2-2.1.1-5 2.1-10.1 4.3-15.2 6.4l.6-2.7c.5-2.4.8-4.8 1-7.2.2-2.4.4-4.8.4-7.2 0-2-.1-3.9-.4-5.9.9-.8 1-2.1.2-3-.3-.3-.6-.5-1-.6l-7.4-2.4c-2.5-.8-4.9-1.5-7.4-2.3-.8-.2-1.6.2-1.9 1-.3.8.1 1.7.9 2 2.4 1 4.8 2 7.2 2.9l2 .8c-1.4.5-2.8 1-4.2 1.6l-9.3 3.6c-6.2 2.5-12.3 4.9-18.5 7.5-6.2 2.5-12.3 5-18.4 7.6-5.8 2.4-11.5 4.9-17.3 7.3-5-1.8-10.1-3.5-15.2-5.2-5.4-1.9-10.9-3.7-16.3-5.5-5.4-1.8-10.9-3.6-16.4-5.3-5.5-1.7-11-3.5-16.5-5.1-.7-.2-1.4.1-1.6.8-.2.7.1 1.4.8 1.6 5.3 2.2 10.7 4.3 16 6.4s10.7 4.2 16.1 6.2c5.4 2.1 10.7 4.1 16.1 6 4.9 1.8 9.9 3.7 14.8 5.5-.5 1.9-.9 3.9-1.2 5.8-.5 2.8-.8 5.6-1 8.4v.5c1.9.5 3.9 1 5.9 1.4 0-.5.1-.9.2-1.3.3-2.8.5-5.6.5-8.4 0-2 0-4-.2-6.1 5.9-2.4 11.8-4.9 17.7-7.4 6.1-2.6 12.2-5.1 18.3-7.8 6.1-2.6 12.2-5.3 18.3-7.9l9.1-4 5.3-2.4c-.3 1.1-.5 2.2-.7 3.3-.4 2.4-.7 4.8-.9 7.2-.2 2.4-.2 4.8-.2 7.2 0 1.6.2 3.3.3 4.9-5.1 2.2-10.3 4.4-15.4 6.7-5.8 2.5-11.6 5.1-17.3 7.7s-11.5 5.2-17.2 8c-.7.4-1.1 1.2-.8 2 .3.8 1.2 1.2 2 1 6-2.1 11.8-4.5 17.7-6.7 5.9-2.2 11.8-4.6 17.6-6.9 5.9-2.4 11.7-4.7 17.6-7.1 5.5-2.2 11-4.5 16.4-6.8 5.5 2 11.1 3.9 16.7 5.9 5.9 2.1 11.9 4.1 17.8 6.1l17.9 6 9 2.9 4.6 1.5-12.2 5.5-12.7 5.8c3.3-.3 6.6-.7 9.7-1.1l4.2-1.8 12.9-5.4c-.1.5-.3 1.1-.4 1.6-.2.9-.4 1.9-.5 2.9 2-.4 4-.8 6-1.3v-1.1c-.1-1.5-.2-2.9-.6-4.3.1-.1.1-.2.2-.3.4-.9-.1-1.9-1-2.3h-.1l-8.8-3.5-8.8-3.4-17.5-6.6c.6-2.7 1-5.3 1.4-8 .5-3.5.9-6.9 1.1-10.4s.4-6.9.4-10.4c0-2.6 0-5.3-.2-8l15.6-6.6c5.4-2.3 10.8-4.6 16.1-7l8.1-3.6 8.1-3.6c5.3-2.5 10.7-4.9 15.9-7.5 1.1-.4 1.4-1.2 1.1-1.9z" fill="#f04e23"/><path d="M387 575.6l-5.6 2.4 8.7 3.1c5.5.7 11 1.2 16.6 1.7l.7.1-20.4-7.3z" fill="#f04e23"/><path d="M562.2 548.1c-.2 1.7-.8 3.4-1.8 4.8-.9 1.5-2 2.8-3.3 4-2.5 2.4-5.3 4.4-8.3 6.2-6 3.5-12.3 6.3-18.9 8.5-13.1 4.4-26.7 7.5-40.4 9.3-13.7 1.9-27.5 2.9-41.4 3.1-13.8.2-27.7-.2-41.5-1.4s-27.5-2.9-41.2-5.4c-6.8-1.2-13.6-2.7-20.3-4.3-6.7-1.6-13.4-3.5-20-5.5-13.2-4.2-26.2-9.2-38.3-15.9-6.1-3.3-11.9-7.2-17.2-11.6-2.7-2.2-5.1-4.7-7.2-7.4-1-1.4-1.9-2.9-2.6-4.5-.7-1.6-1-3.3-.9-5 .1-1.7 1.5-2.9 3.2-2.8s2.9 1.5 2.8 3.2v.2c0 .8.2 1.5.5 2.2.5 1.1 1.2 2.2 1.9 3.2 1.9 2.4 4 4.5 6.3 6.5 5 4.1 10.4 7.8 16.2 10.9 2.9 1.6 5.8 3.1 8.9 4.5l4.6 2.1 4.7 2c6.2 2.5 12.6 4.8 19.1 6.8 6.5 2.1 13 3.8 19.6 5.4 6.6 1.6 13.3 3 20 4.2 13.4 2.5 27 4.2 40.6 5.4 13.6 1.2 27.3 1.7 40.9 1.4 13.6-.2 27.2-1.2 40.7-3 13.4-1.8 26.5-4.8 39.3-9.1 6.2-2.1 12.2-4.8 17.8-8.1 2.6-1.5 5-3.3 7.3-5.4.9-.9 1.7-1.8 2.4-2.9.5-.7.8-1.4.9-2.2.1-1.6 1.5-2.8 3.1-2.7 1.4.3 2.6 1.7 2.5 3.3zM480.8 641.9c1.2-2.5 3-4.6 5.1-6.4-3.1-.5-6.7-2.3-10.5-4.3-5.6-2.9-11.4-5.9-17.8-5.7-5.5.1-10.8 3.2-15.9 6.2-4.8 2.8-9.8 5.7-14.2 5.5-3.6-.2-7.8-3.1-12.1-6.2-5.2-3.7-10.5-7.5-16.7-8.2-6.3-.7-12.4 1.9-18.3 4.4-4.9 2.1-9.6 4.1-13.1 3.5-4.4-.7-8.6-4.6-12.8-8.3-4.4-3.9-8.9-8.1-14.3-9.3-6.2-1.4-12.9.4-18.7 2.1-5.1 1.5-9.9 2.8-13.3 1.8-4.5-1.4-8.2-6-11.8-10.5-3.6-4.5-7.2-9-12.1-11.1-6-2.6-13-2-19.1-1.6-5.2.4-10.1.8-12.9-.9-4.8-2.8-7.3-8.8-9.6-14.6-1.2-3.1-2.6-6.1-4.3-9 .8 8.4 2 16.7 3.6 24.9 1.7 2.2 3.8 4.1 6.3 5.6 5 2.9 11.4 2.4 17.6 2 5.4-.4 11.1-.8 15.3 1 3 1.3 5.9 4.9 8.9 8.7 4.1 5.2 8.9 11 15.6 13.1 5.6 1.8 11.9 0 17.9-1.7 5.2-1.5 10.5-3 14.7-2 3.4.8 6.9 4 10.7 7.4 4.8 4.3 10.2 9.2 16.9 10.3 5.9 1 11.8-1.6 17.6-4 4.9-2.1 10-4.3 14.2-3.8 4.2.5 8.6 3.6 12.9 6.7 5.1 3.7 10.4 7.5 16.4 7.7h.8c6.5 0 12.5-3.5 17.8-6.6 4.4-2.6 8.5-5 12-5 4.3-.1 9.2 2.4 13.9 4.9 2.8 1.5 5.8 2.9 8.8 4 .4-.3.4-.5.5-.6z" fill="#10294c"/><path d="M484.2 665.6c-1.7-1.8-3-3.9-4-6.2-1.7-.8-3.4-1.6-5.2-2.5-5.5-2.8-11.2-5.8-17.3-5.6-5.3.1-10.4 3.1-15.4 6s-10.1 5.9-14.7 5.6c-3.9-.2-8.2-3.2-12.7-6.4-5-3.6-10.3-7.3-16.3-8-6-.7-12 1.9-17.7 4.3-5 2.2-9.8 4.2-13.7 3.6-4.7-.8-9.1-4.7-13.3-8.6s-8.7-7.9-13.8-9.1c-6-1.4-12.2.4-18.2 2.1-5.3 1.5-10.2 2.9-13.8 1.8-4.8-1.5-8.6-6.2-12.3-10.8-3.5-4.3-7-8.8-11.7-10.7-5.8-2.5-12.6-2-18.6-1.5-5.4.4-10.4.8-13.5-1-1.9-1.2-3.6-2.8-4.9-4.7 1.1 3.6 2.3 7.2 3.7 10.8 4.4 1.7 9.6 1.3 15.2.9 5.5-.4 11.3-.9 15.8 1 3.2 1.4 6.2 5 9.3 9 4 5 8.7 10.8 15.2 12.8 5.3 1.7 11.4 0 17.3-1.7 5.3-1.5 10.7-3 15.2-2 3.6.8 7.3 4.1 11.1 7.6 4.9 4.4 9.9 9 16.4 10.1 5.6.9 11.4-1.6 17-4 5-2.2 10.2-4.4 14.7-3.9 4.5.5 9 3.7 13.4 6.9 5 3.6 10.2 7.3 15.9 7.6h.8c6.2 0 11.8-3.3 17.2-6.5 4.5-2.6 8.7-5.1 12.4-5.2 4.6-.1 9.6 2.5 14.4 5 4.5 2.3 9.2 4.7 13.9 5.1l-1.8-1.8z" fill="#fff"/><path d="M491.4 690.8c-.3-1.2-.5-2.4-.5-3.6-.1-1.4 0-2.8.2-4.2-.9.4-1.8.6-2.8.7-3.5.4-8-1.9-12.7-4.4-5.6-2.9-11.5-5.9-17.8-5.7-5.5.1-10.8 3.2-15.9 6.2-4.8 2.8-9.8 5.7-14.2 5.5-3.6-.2-7.8-3.1-12.1-6.2-5.2-3.7-10.5-7.5-16.7-8.2-6.3-.7-12.4 1.9-18.2 4.4-4.9 2.1-9.6 4.1-13.1 3.5-4.4-.7-8.6-4.6-12.8-8.3-4.4-4-8.9-8.1-14.3-9.3-6.2-1.4-12.9.4-18.7 2.1-5.1 1.5-9.9 2.8-13.3 1.8-4.5-1.4-8.2-6-11.8-10.5-3.6-4.5-7.2-9-12.1-11.1-6-2.6-13-2-19.1-1.6-2.4.2-4.8.4-6.9.3 1.3 2.7 2.8 5.3 4.3 7.9l3.1-.2c5.4-.4 11.1-.8 15.3 1 3 1.3 5.9 4.9 8.9 8.7 4.1 5.2 8.9 11 15.6 13.1 5.6 1.8 11.9 0 17.9-1.7 5.2-1.5 10.5-3 14.7-2 3.4.8 6.9 4 10.7 7.4 4.8 4.3 10.2 9.2 16.9 10.3 5.9 1 11.8-1.6 17.6-4 4.9-2.1 10-4.3 14.2-3.8 4.2.5 8.6 3.6 12.9 6.7 5.1 3.7 10.4 7.4 16.4 7.7h.8c6.5 0 12.5-3.5 17.8-6.6 4.4-2.6 8.5-5 12-5 4.3-.1 9.2 2.4 13.9 4.8 5.6 2.9 11.4 5.9 17.3 5.2.8-.1 1.7-.2 2.5-.4.1-.2 0-.4 0-.5z" fill="#10294c"/></g><g><path d="M12.2 341.4L368 469.2c3.8 1.3 3.2 4.7 1.9 8.4-1.3 3.7-2.9 6.4-6.6 5.2L5.1 361.7c-5.6-1.9-5.9-5.7-4-11.4s5.3-11 10.9-9.1l.2.2z" fill="#f04e23"/><path fill="#fdb813" d="M329.5 376.4L256 407.1l.6.3-5 48.7 71.1 25.3 73.4-30.7 4.1-48.9.3-.1z"/><path d="M388.8 430.6c-4 2.4-8.1 4.5-12.3 6.4s-8.4 3.8-12.7 5.6-8.6 3.4-12.9 4.9-8.8 3-13.3 4.1c-.7.2-1.4-.2-1.6-.9-.2-.6.1-1.2.6-1.5 4-2.4 8.1-4.5 12.3-6.5s8.3-3.9 12.6-5.8c4.2-1.8 8.5-3.5 12.9-5.1s8.7-3.1 13.2-4.3c.9-.2 1.7.3 2 1.2.1.8-.2 1.6-.8 1.9zM386.2 446.3c-1.3 1.2-2.8 2.2-4.3 3-1.5.8-3 1.6-4.6 2.2-1.6.6-3.2 1.2-4.9 1.6-1.7.4-3.5.7-5.3.8-.8 0-1.4-.6-1.4-1.3 0-.4.2-.7.4-1 1.3-1.2 2.7-2.3 4.2-3.2 1.5-.9 3-1.7 4.6-2.4 1.6-.7 3.2-1.3 4.8-1.8 1.7-.5 3.4-.8 5.2-.9.9 0 1.7.7 1.8 1.6 0 .5-.2 1-.5 1.4z" fill="#f04e23"/><path d="M392.7 405.1c-.3-.8-1.2-1.3-2-1-5.5 1.9-10.9 4-16.4 6l-16.2 6.3c-5.4 2.2-10.8 4.4-16.1 6.5l-15 6.3c-5-1.7-9.9-3.5-14.9-5.2-5.3-1.8-10.7-3.6-16-5.4-5.4-1.8-10.7-3.5-16.1-5.2-5.4-1.7-10.8-3.4-16.2-4.9-.7-.2-1.4.2-1.6.9-.2.6.1 1.2.7 1.5 5.2 2.2 10.4 4.3 15.6 6.4 5.2 2.1 10.5 4.1 15.8 6.1s10.5 4 15.8 6c4.8 1.8 9.7 3.6 14.6 5.3-.5 2.3-1 4.6-1.3 6.8-.5 3.2-.8 6.3-1.1 9.5-.3 3.2-.4 6.4-.4 9.6-.1 3.2.1 6.5.5 9.7.1.7.7 1.2 1.4 1.2.5-.1 1-.4 1.1-.9.9-3.1 1.6-6.2 2.1-9.4.6-3.2 1-6.3 1.3-9.5.3-3.2.5-6.4.6-9.6.1-2.4 0-4.8-.1-7.2l15.5-6.5c5.3-2.3 10.7-4.6 16-6.9 5.3-2.4 10.6-4.7 15.9-7.1 5.3-2.4 10.6-4.9 15.8-7.4.6-.3 1-1.1.7-1.9z" fill="#f04e23"/><path d="M287.6 448.8c-4.2-1.5-8.4-3.2-12.5-4.9-1.1-.5-2.3-1-3.4-1.5v1.3c-.1 1.3-.1 2.7-.2 4-.1 1.3-.1 2.7-.3 4 0 .2 0 .4-.1.6l1.7-.2 4.9-.4c1.6-.2 3.3-.3 4.9-.4s3.3-.2 4.9-.3c2-.1 4-.2 6.1-.2-1.9-.6-3.9-1.3-6-2z" fill="none"/><path d="M314.5 453.5c-4-2.1-8.1-3.9-12.3-5.6-4.2-1.7-8.3-3.3-12.6-4.8s-8.5-2.8-12.8-4.1c-4.3-1.3-8.7-2.4-13.1-3.3-.7-.1-1.4.3-1.5 1-.1.6.2 1.1.7 1.4 1.9 1 3.9 2 5.9 2.9-.2.7-.4 1.5-.6 2.2-.3 1.3-.7 2.6-.9 4-.3 1.3-.6 2.6-.9 4-.3 1.3-.5 2.6-.8 4v.6c0 1.5 1.3 2.6 2.7 2.6h.2l4.9-.2 4.9-.3c1.6-.1 3.3-.2 4.9-.3 1.6-.1 3.3-.2 4.9-.4 3.3-.3 6.5-.7 9.8-1.1 2.6-.4 5.3-.8 7.9-1.3 2.5.7 5 1.3 7.6 1.8.8.3 1.7-.1 2-1 .4-.9 0-1.8-.9-2.1zm-26.8-2.4c-1.6.1-3.3.2-4.9.3s-3.3.2-4.9.4l-4.9.4-1.7.2c0-.2 0-.4.1-.6.1-1.3.2-2.7.3-4s.1-2.7.2-4v-1.3c1.1.5 2.2 1 3.4 1.5 4.1 1.8 8.3 3.4 12.5 4.9 2 .7 4.1 1.5 6.2 2.2-2.2-.1-4.2-.1-6.3 0z" fill="#f04e23"/><path fill="#10294c" d="M310.3 413l-28.4-10-5.7 2.4 28.5 10zM319 416.1l-5.6 2.4 14.6 5.1 5.6-2.4zM310.2 403.4l-15.8-5.6-5.7 2.4 15.9 5.5zM318.9 406.4l-5.6 2.4 27.2 9.6 5.6-2.4zM340.6 404.3l-33.5-11.8-5.6 2.3 33.5 11.8zM343.6 409.7l9.6 3.3 5.7-2.3-9.6-3.4zM353.4 389.6l-11.1.5 35.7 12.5 5.7-2.3zM339.7 394.3l-10.4-3.7-11.1.5 15.8 5.5zM348.3 397.3l-5.6 2.4 23 8.1 5.7-2.4z"/><path d="M8.3 382.3l374.6-8.3c4-.1 5.2 3.5 5.3 7.5s-.9 6.7-4.8 6.9L9 403.8c-6 .3-7.6-4.3-7.9-10.3s1-11 7-11.3l.2.1z" fill="#f04e23"/></g><g><path d="M134.2 591.8c58.8-13.3 81.3-67.6 81.3-67.6L162 475.8s-30.1 50.7-78.5 67l50.7 49z" fill="#fdb813"/><path d="M135.8 574.6c-1.5 0-2.8-1.1-3-2.7-1.6-13.5-9.9-28.1-10-28.3-.8-1.4-.3-3.3 1.1-4.1.5-.3 1.2-.4 1.8-.4 16.7 1.4 38.9-3.7 46.4-5.6-2.2-12-6.8-23.4-13.4-33.6-1-1.3-.8-3.2.6-4.2 1.3-1 3.2-.8 4.2.6 0 .1.1.1.1.2.5.7 11.9 17.2 14.9 38.9.2 1.5-.7 2.9-2.2 3.3-1.1.3-25.2 7-45.8 6.7 2.8 5.8 7.1 15.9 8.2 25.8.2 1.7-1 3.2-2.7 3.3l-.2.1z" fill="#f04e23"/><ellipse transform="rotate(-29.888 176.713 538.714)" cx="176.7" cy="538.7" rx="21" ry="16.8" fill="#fff"/><ellipse transform="rotate(-23.22 125.456 542.141)" cx="125.5" cy="542.2" rx="12" ry="9.6" fill="#00acdc"/><ellipse transform="rotate(-35.304 161.15 498.232)" cx="161.2" cy="498.3" rx="8.1" ry="6.5" fill="#10294c"/><ellipse transform="rotate(-15.549 135.825 571.55)" cx="135.8" cy="571.6" rx="8.1" ry="6.5" fill="#10294c"/><ellipse transform="rotate(-30 175.47 535.827)" cx="175.5" cy="535.8" rx="8.6" ry="6.8" fill="#f04e23"/></g><g><path d="M166.6 401.1c-1.8.6-3.7 1-5.6 1.2-1.9.3-3.7.4-5.6.5s-3.7.1-5.6 0c-1.9-.1-3.8-.3-5.7-.7-1-.2-1.7-1.2-1.4-2.2.1-.7.6-1.2 1.3-1.4 1.8-.6 3.7-1 5.6-1.2 1.9-.2 3.7-.4 5.6-.5 1.9-.1 3.7 0 5.6.1 1.9.1 3.8.3 5.7.8 1 .2 1.6 1.2 1.3 2.2-.2.5-.6 1-1.2 1.2z" fill="#10294c"/><path d="M212.5 365.1c-2.4-3.8-6.1-5.8-10-7.8-22.8-11.7-48.8-15.4-73.9-10.6-9 1.7-17.6 4.8-25.8 8.9-4 2-7.8 4.3-11.4 6.8-2.4 1.7-5.8 1.1-7.5-1.3-.3-.4-.6-.9-.7-1.4-.7-2.1-1.2-4.2-1.5-6.3-1.8-12.5 3.5-24.3 11.5-33.6 8.4-9.7 19.5-16.9 31.1-22.1 11.9-5.3 24.5-8.8 37.4-10.7 5.8-.9 18.5-2.2 24.4-2.6.5-15.7 2-23.9 7.6-41-3.3 0-14.1 0-17.4.1-12.3.3-24.6 1.7-36.7 4.3-25.3 5.3-49.9 15.6-69.7 32.5-18.8 16-32.4 38.3-34.2 63.3-1.9 24.6 8.1 48.3 24 66.7 1.8 2.1 3 4.7 3.3 7.4.5 3.8 1.4 7.5 2.9 11 .1.2.1.3.2.5.5 1.3 1.1 2.6 1.9 3.8v.1c2 3.1 4.3 5.9 6.9 8.5 9.1 9.1 20.5 15.5 33 18.4 3.1.7 6.2 1.1 9.4 1.3h5.3l1.8-.1c1.4.1 2.9 0 4.3-.3 14.8-1.2 25-5.7 28.4-18.5 11.1-2.7 19.6-11.7 19.3-23l-8.5-2.9c-3.5-1.2-6.9-2.5-9.6-3.7-.5-.3-1-.5-1.5-.8-1.8-.8-3.5-1.6-5.2-2.3-5.7-2.5-11.3-5-16.8-7.7-1.2-.6-2.3-1.2-3.5-1.8-4.8-2.8-5-11.4 2.1-13.1 9.1-2.1 18.3-3.1 27.6-2.8 6.4.1 12.9.7 19.2 1.8 3 .5 6 1 9 1.6 1.3.3 2.6.6 3.9.8.3 0 1.1.3 1.5.4 8.7 2.9 18.3-3.1 20.2-11.9.7-4 0-8.3-2.3-11.9z" fill="#10294c"/><path d="M204.5 372.9c-3.8 7.7-19.9 3.3-15-7.4 5-10.6 19.3-1.3 15 7.4zM150.1 366.4c-.4-1.5-.6-3.1-.6-4.6 0-1.5.1-3.1.4-4.6.3-1.5.8-3 1.4-4.5.6-1.5 1.6-2.9 2.7-4 .7-.8 1.9-.8 2.7 0 .4.4.6 1 .6 1.6v.2c-.1 1.4-.4 2.7-.6 4-.2 1.3-.5 2.7-.8 4-.3 1.4-.6 2.7-.9 4-.3 1.4-.8 2.8-1.3 4.1l-.1.1c-.4.9-1.5 1.4-2.4 1-.5-.3-.9-.8-1.1-1.3zM163.8 362.2c-.4-.8-.7-1.6-.8-2.5-.1-.8-.1-1.7.1-2.5s.5-1.6.9-2.4c.4-.8 1.1-1.5 1.9-2.1.9-.6 2.2-.4 2.8.5 0 0 0 .1.1.1l.3.6.1.4c.2.7.2 1.3.2 2 0 .6-.1 1.3-.2 1.9-.1.7-.3 1.3-.6 1.9-.3.7-.7 1.4-1.1 1.9l-.2.3c-.7.8-2 .9-2.8.2-.4.1-.6-.1-.7-.3zM147.8 422.3c-.3-.7-.4-1.4-.3-2.1 0-.6.1-1.2.3-1.8.2-.6.5-1.2.8-1.7.4-.6.9-1.1 1.5-1.5l.1-.1c1.1-.7 2.5-.4 3.2.7.1.1.1.3.2.4.2.7.4 1.4.3 2.1 0 .6-.2 1.3-.4 1.9-.2.6-.5 1.2-.9 1.7-.4.6-.9 1.1-1.5 1.5-1 .6-2.4.3-3-.7-.1-.1-.1-.2-.2-.4h-.1zM155.1 435.3c.1-1.1.3-2.1.7-3.1.3-1 .6-1.9.9-2.9.3-.9.6-1.8 1-2.7.4-.9.8-1.9 1.2-2.8l.1-.2c.5-.9 1.7-1.3 2.6-.8.4.2.7.6.9 1 .5 1.2.7 2.5.6 3.9-.1 1.3-.3 2.5-.8 3.7-.4 1.2-1 2.3-1.7 3.3s-1.6 1.9-2.7 2.7c-.8.6-2 .3-2.6-.5-.2-.4-.3-.8-.3-1.2l.1-.4zM138.1 454c-.2-.7-.2-1.3-.1-2 .1-.6.2-1.2.4-1.7s.5-1 .8-1.5c.4-.5.8-1 1.3-1.3l.3-.2c1-.7 2.3-.4 3 .6.1.1.2.2.2.4.3.7.4 1.5.4 2.3-.1.7-.2 1.4-.5 2-.3.6-.6 1.2-1.1 1.7-.5.6-1.1 1-1.8 1.4-1.1.5-2.3.1-2.9-1-.1-.1-.1-.2-.1-.4l.1-.3zM151.9 442.9c-3.1.5-6.2.7-9.4.6-3.1-.1-6.2-.5-9.3-1.1-3.1-.6-6.1-1.6-9.1-2.8-3-1.3-5.7-3-8.2-5-.8-.7-.8-1.8-.1-2.6.5-.6 1.3-.8 2-.5h.1c2.7 1.1 5.3 2 8.1 2.9 1.4.3 2.7.8 4.2 1.1 1.4.3 2.8.7 4.2 1 2.8.6 5.7 1.1 8.6 1.6l8.7 1.4h.1c1 .2 1.6 1.1 1.4 2-.1.7-.7 1.3-1.3 1.4z" fill="#00acdc"/></g><g><path d="M799.6 407.5c-.5-6.3-1.2-12.5-2.3-18.7-1.1-6.5-2.6-13-4.5-19.3-.9-3-1.7-6-2.8-9-1.1-3-2.3-6-3.4-8.9-1.1-3-2.6-6-3.9-9.1v.9c-6.8-15.7-42-2.7-38.7 14.2.4.9.8 1.8 1.2 2.8 4.9 10.9 8.4 22.5 10.4 34.4 1 6.4 1.6 12.8 1.8 19.3.1 6.4-.2 12.8-.9 19.1-1.6 12.9-4.9 25.5-9.7 37.6-4.9 12.1-11.1 23.7-18.6 34.4-14.9 21.2-33.4 39.6-54.6 54.6-10.6 7.5-21.7 14.4-33.2 20.5-9.5 5-19.3 9.5-29.3 13.5-2.1.9-4.4-.1-5.3-2.2-.1-.2-.1-.4-.2-.6-2.1-8.1-8.1-24.7-24.1-31.8-1 7.1-2.1 17.5-2.1 17.5-1.3 4.7-4.2 8.8-8.1 11.7l-.2.1-5.7 2.7c-12.1 4.5-24.7 7.5-37.5 9.1-6.3.8-12.7 1.4-19 1.9-3 .2-6 .4-9 .5-1.4.1-2.9.2-4.3.2h-5.4c-8.7.2-15.7 7.4-15.5 16.1.1 5.6 3.2 10.7 8 13.4 1.9 1 4 1.6 6.2 2 2 .5 4 .9 6 1.4-8.2 2.9-12.5 12-9.5 20.2 1.2 3.3 3.4 6.1 6.4 8 1.9 1.1 3.9 1.9 6 2.4 2.5.8 5 1.5 7.7 2.1 2 .5 3.9.9 5.9 1.3-8.7.7-15.2 8.3-14.5 17 .4 5.5 3.7 10.4 8.6 12.9 2 .9 4.1 1.5 6.2 1.8 2.6.5 5.2 1 7.8 1.4 7.3 1.1 14.6 1.6 22 1.6 7.3-.1 14.5-1.6 21.3-4.4l.2-.1c.2-.1.4-.1.5-.2 20.8-9 32.8-29.4 39.1-46.9 1.5-4.2 4.8-7.5 9.1-9.1 4.4-1.6 9.7-3.6 12.6-4.8 11.4-4.7 22.5-9.9 33.6-15.5 11.5-6 22.6-12.8 33.3-20.1 21.5-14.6 41-32.1 57.7-52 17-20 30.3-42.8 39.4-67.3 4.5-12.3 7.8-25.1 9.8-38.1 1.8-12.6 2.3-25.6 1.5-38.5z" fill="#10294c"/><path d="M485.4 620.6c.6-8.5 17.1-10.6 16.6 1.1-.5 11.8-17.3 8.6-16.6-1.1zM496.6 653.5c.6-8.5 17.1-10.6 16.6 1.1-.4 11.8-17.2 8.6-16.6-1.1zM506.9 687.4c.6-8.5 17.1-10.6 16.6 1.1-.4 11.8-17.2 8.6-16.6-1.1zM516 669.2c4.4 0 8.9.1 13.3.1s8.8-.2 13.2-.4c4.4-.2 8.7-.7 13.1-1.2 4.4-.6 8.6-1.5 13-2.3h.1c.7-.1 1.4.3 1.5 1 .1.6-.2 1.1-.7 1.4-4.1 2.2-8.4 3.9-12.9 5s-9 1.9-13.7 2.2c-4.6.3-9.2.3-13.8-.1-4.6-.3-9.1-1.2-13.6-2.4-.8-.2-1.3-1.1-1.1-2 .2-.8.8-1.2 1.6-1.3zM499.6 635.3c5.4-.2 10.8-.3 16.1-.4 2.7-.1 5.4-.1 8.1-.2l4-.1c1.3 0 2.7-.2 4-.2 5.3-.3 10.6-.7 15.9-1.4 5.2-.7 10.4-1.8 15.4-3.3.7-.2 1.4.2 1.6.8.2.6 0 1.2-.5 1.5-4.8 2.8-10.1 4.9-15.6 6a113.759 113.759 0 0 1-24.7 2.7c-2.7.1-5.5 0-8.2-.2-5.5-.3-11-.9-16.4-2-.9-.2-1.4-1-1.3-1.9.2-.8.8-1.3 1.6-1.3zM538.5 610.5c1.1 1.3 2 2.8 2.5 4.4.5 1.6.9 3.2.9 4.9.1 1.7-.1 3.4-.6 5s-1.3 3.1-2.4 4.4c-.7.8-1.9.9-2.7.2-.4-.4-.7-.9-.7-1.5v-.3c0-1.4.3-2.7.3-4 .1-1.3.1-2.5 0-3.8 0-1.3-.1-2.5-.2-3.9s-.3-2.7-.3-4v-.3c0-1 .8-1.8 1.8-1.8.5 0 1 .2 1.4.7zM552.1 614.7c.6.6 1 1.3 1.2 2 .2.7.4 1.4.4 2.1 0 .7-.1 1.4-.3 2.1-.2.8-.6 1.4-1.1 2-.9.9-2.3.9-3.2.1-.1-.1-.2-.2-.3-.4l-.1-.2c-.4-.6-.6-1.2-.8-1.8-.1-.6-.2-1.1-.2-1.7 0-.6.1-1.2.2-1.7.1-.6.4-1.2.8-1.8l.4-.5c.7-.9 1.9-1 2.8-.4 0 .1.1.2.2.2z" fill="#00acdc"/><path d="M544.6 651.4c1.1 1.5 1.8 3.1 2.3 4.9.5 1.7.6 3.5.6 5.3-.1 1.8-.4 3.6-1.1 5.3-.6 1.7-1.6 3.3-2.9 4.6-.7.7-1.9.8-2.6.1-.4-.4-.6-1-.6-1.6v-.2c.2-1.5.6-2.9.7-4.3.2-1.4.3-2.7.4-4.1.1-1.4.1-2.8.1-4.2 0-1.4-.1-3-.1-4.4v-.3c0-1 .8-1.8 1.8-1.8.6 0 1.1.3 1.4.7zM554.5 680.8c.7 1.4 1.1 2.9 1.3 4.5.2 1.5.3 3.1.3 4.6-.1 1.6-.3 3.1-.7 4.7-.4 1.6-1.1 3.1-2 4.4-.6.9-1.8 1-2.7.4-.5-.3-.8-.9-.8-1.4v-.2c-.1-1.4-.1-2.7 0-4.1s0-2.7.1-4c.1-1.3.1-2.7.3-4.1.1-1.4.3-2.8.7-4.2v-.1c.2-1 1.2-1.6 2.2-1.3.6 0 1.1.3 1.3.8zM543.8 687.8c.5.7.9 1.5 1.2 2.3.2.8.3 1.6.3 2.5 0 .9-.2 1.7-.5 2.5-.3.9-.8 1.7-1.5 2.3-.8.8-2.1.7-2.8-.1l-.1-.1c-.2-.2-.3-.4-.4-.6l-.2-.4c-.3-.6-.4-1.3-.5-2-.1-.6-.1-1.3-.1-1.9 0-.7.1-1.4.3-2 .2-.7.4-1.4.8-2.1l.2-.3c.6-.9 1.8-1.2 2.8-.6.2.1.4.3.5.5z" fill="#00acdc"/></g><g><path d="M230.1 697.7c51-17.1 73.5-63.3 73.5-63.3l-70.9-24.6s-22.5 46.2-73.4 63.3l70.8 24.6z" fill="#fdb813"/><path d="M242.9 685.8c5.3-2.7 10.5-5.9 15.3-9.5l-21.8-7.6c-5 3.5-10.4 6.6-15.9 9.2l22.4 7.9z" fill="#f04e23"/><path d="M235.7 617.5s-6.7 11.6-13.8 19.4l19.6 6.8c5.2-6 9.8-12.5 13.7-19.4l-19.5-6.8z" fill="#00acdc"/><path d="M230 691.5c2-.7 3.9-1.5 5.8-2.3l-54.6-19c-1.7.9-3.4 1.7-5.1 2.6l53.9 18.7zM261.7 626.6c-.6 1-1.3 2.2-2.2 3.6l32.2 11.2c.9-1.3 1.6-2.5 2.3-3.5l-32.3-11.3zM228.9 666.1l-27.2-9.4-3.9 3 26.8 9.3c1.5-1 2.9-1.9 4.3-2.9zM250.8 642.6c-.9 1.1-1.8 2.2-2.7 3.4l31.5 11c1-1.1 2-2.2 2.9-3.3l-31.7-11.1zM200.2 666.6l-8.1-2.8c-1.4 1-2.9 1.9-4.4 2.8l7.9 2.7c1.5-.9 3.1-1.8 4.6-2.7zM203.3 672l10.1 3.5c1.7-.8 3.3-1.7 4.9-2.6l-10.6-3.7c-1.4.9-2.9 1.9-4.4 2.8zM241.9 660.4l-31.7-11c-1.1 1-2.3 2.1-3.5 3.1l31.4 10.9c1.3-1 2.6-2 3.8-3zM245.1 665.8l18.4 6.4c1.3-1 2.5-2 3.7-3l-18.4-6.4c-1.3 1-2.5 2-3.7 3zM276.3 646.2l9.5 3.3c.9-1.2 1.8-2.3 2.6-3.4l-9.5-3.3c-.8 1.1-1.7 2.3-2.6 3.4zM272.7 640.6l-16.3-5.7c-.8 1.1-1.6 2.3-2.5 3.5l16 5.6c1-1.1 1.9-2.3 2.8-3.4zM238.8 648.7c-1 1.1-1.9 2.2-3 3.3l36.3 12.6c1.1-1.1 2.2-2.2 3.3-3.2l-36.6-12.7zM232.4 646.5l-14.4-5c-1 1.1-2 2.2-3.1 3.3l14.4 5c1.1-1.2 2.1-2.3 3.1-3.3z" fill="#10294c"/></g></svg>